<svg xmlns="http://www.w3.org/2000/svg" width="512" height="512" viewBox="0 0 512 512">
  <defs>
    <linearGradient id="g" x1="0" x2="1" y1="0" y2="1">
      <stop offset="0" stop-color="#2563eb"/>
      <stop offset="1" stop-color="#60a5fa"/>
    </linearGradient>
  </defs>
  <rect width="512" height="512" rx="120" fill="#000"/>
  <circle cx="256" cy="256" r="196" fill="url(#g)" opacity="0.22"/>
  <path d="M150 320c48-96 112-144 192-144 40 0 72 8 96 32-48 8-80 32-104 64-32 48-80 72-144 72-16 0-32-8-40-24z" fill="#fff" opacity="0.95"/>
  <path d="M136 352c24 24 56 40 104 40 72 0 128-32 168-96 16-32 40-48 72-56-8 80-72 144-160 160-72 16-144-8-184-48z" fill="#60a5fa" opacity="0.95"/>
  <circle cx="320" cy="152" r="44" fill="#93c5fd"/>
</svg>

